<?xml version="1.0" encoding="UTF-8"?>
<svg id="Camada_2" data-name="Camada 2" xmlns="http://www.w3.org/2000/svg" viewBox="0 0 143.72 234.25">
  <defs>
    <style>
      .cls-1 {
        fill: #5f72da;
      }
    </style>
  </defs>
  <g id="Camada_1-2" data-name="Camada 1">
    <path class="cls-1" d="M109.17,76.55c-.87,0-1.64.57-1.9,1.4l-14.7,47.82c-3.61,11.29-6.77,26.64-6.77,26.64h-.45s-3.61-15.35-7.22-26.64l-24.02-89.86c-.32-1.19.51-2.38,1.74-2.49l9.25-.84c1.76-.16,2.45-2.37,1.09-3.5L31.89.46c-.84-.7-2.09-.59-2.8.25L.47,35.02c-1.13,1.36-.06,3.41,1.7,3.25l12.12-1.09c.92-.08,1.78.48,2.07,1.36l41.45,126.92s.02.07.04.1c4.73,12.16,6.98,18.92,6.98,23.88,0,7.9-4.29,12.19-15.13,12.19h-10.18c-1.1,0-1.99-.9-1.98-2v-1.4c.02-1.77-2.12-2.67-3.37-1.42l-17.11,16.93c-.78.77-.79,2.03-.02,2.81l16.93,17.11c1.24,1.26,3.39.38,3.4-1.38h0c0-1.09.89-1.97,1.98-1.97h21.65c23.25,0,34.32-9.48,43.57-36.57l39.07-114.55c.44-1.29-.52-2.63-1.88-2.63h-32.56Z"/>
  </g>
</svg>