<svg width="1440" height="501" viewBox="0 0 1440 501" fill="none" xmlns="http://www.w3.org/2000/svg">
<g filter="url(#filter0_f_1_248)">
<path d="M1446.79 356.352C1444.83 440.905 1144.73 377.038 742.458 370.609C340.189 364.181 7.51803 421.141 9.47671 336.588C11.4354 252.035 322.546 113.238 724.816 119.666C1127.09 126.095 1448.75 271.799 1446.79 356.352Z" fill="url(#paint0_linear_1_248)" fill-opacity="0.8"/>
</g>
<g style="mix-blend-mode:plus-lighter" filter="url(#filter1_f_1_248)">
<path d="M1394.2 341.185C1393.42 374.967 1125.68 282.615 762.714 276.814C399.745 271.014 86.3866 354.945 87.1692 321.162C87.9518 287.38 389.323 156.768 752.292 162.569C1115.26 168.369 1394.98 307.402 1394.2 341.185Z" fill="white" fill-opacity="0.8"/>
</g>
<g style="mix-blend-mode:overlay" filter="url(#filter2_f_1_248)">
<path d="M1394.2 301.657C1393.42 335.439 1125.68 243.087 762.714 237.286C399.745 231.486 86.3866 315.417 87.1692 281.635C87.9518 247.852 389.323 117.24 752.292 123.041C1115.26 128.841 1394.98 267.874 1394.2 301.657Z" fill="white" fill-opacity="0.8"/>
</g>
<path d="M1438.26 317.09L1438.26 479L0 479L0.00318794 317.595C180.309 221.834 436.016 162.058 719.607 162.058C1002.7 162.058 1258.01 221.624 1438.26 317.09Z" fill="url(#paint1_linear_1_248)"/>
<g opacity="0.87" filter="url(#filter3_f_1_248)">
<path d="M714.77 194.453C576.143 189.568 463.736 219.765 464.674 192.23C465.611 164.695 579.536 89.8549 718.164 94.7398C856.791 99.6247 968.371 164.664 967.434 192.199C966.497 219.734 853.398 199.338 714.77 194.453Z" fill="url(#paint2_linear_1_248)"/>
</g>
<g style="mix-blend-mode:plus-lighter" opacity="0.87" filter="url(#filter4_f_1_248)">
<path d="M712.663 171.734C384.86 160.183 136.243 263.26 136.438 257.532C136.633 251.804 385.566 139.441 713.369 150.992C1041.17 162.543 1323.81 251.804 1323.62 257.532C1323.42 263.26 1040.47 183.285 712.663 171.734Z" fill="white"/>
</g>
<defs>
<filter id="filter0_f_1_248" x="-91.0319" y="18.9507" width="1638.33" height="481.316" filterUnits="userSpaceOnUse" color-interpolation-filters="sRGB">
<feFlood flood-opacity="0" result="BackgroundImageFix"/>
<feBlend mode="normal" in="SourceGraphic" in2="BackgroundImageFix" result="shape"/>
<feGaussianBlur stdDeviation="50.25" result="effect1_foregroundBlur_1_248"/>
</filter>
<filter id="filter1_f_1_248" x="54.5677" y="129.781" width="1372.24" height="251.413" filterUnits="userSpaceOnUse" color-interpolation-filters="sRGB">
<feFlood flood-opacity="0" result="BackgroundImageFix"/>
<feBlend mode="normal" in="SourceGraphic" in2="BackgroundImageFix" result="shape"/>
<feGaussianBlur stdDeviation="16.3" result="effect1_foregroundBlur_1_248"/>
</filter>
<filter id="filter2_f_1_248" x="54.5677" y="90.2534" width="1372.24" height="251.413" filterUnits="userSpaceOnUse" color-interpolation-filters="sRGB">
<feFlood flood-opacity="0" result="BackgroundImageFix"/>
<feBlend mode="normal" in="SourceGraphic" in2="BackgroundImageFix" result="shape"/>
<feGaussianBlur stdDeviation="16.3" result="effect1_foregroundBlur_1_248"/>
</filter>
<filter id="filter3_f_1_248" x="370.368" y="0.211533" width="691.372" height="300.397" filterUnits="userSpaceOnUse" color-interpolation-filters="sRGB">
<feFlood flood-opacity="0" result="BackgroundImageFix"/>
<feBlend mode="normal" in="SourceGraphic" in2="BackgroundImageFix" result="shape"/>
<feGaussianBlur stdDeviation="47.15" result="effect1_foregroundBlur_1_248"/>
</filter>
<filter id="filter4_f_1_248" x="68.0381" y="81.7593" width="1323.98" height="244.466" filterUnits="userSpaceOnUse" color-interpolation-filters="sRGB">
<feFlood flood-opacity="0" result="BackgroundImageFix"/>
<feBlend mode="normal" in="SourceGraphic" in2="BackgroundImageFix" result="shape"/>
<feGaussianBlur stdDeviation="34.2" result="effect1_foregroundBlur_1_248"/>
</filter>
<linearGradient id="paint0_linear_1_248" x1="1204.49" y1="215.832" x2="426.946" y2="669.474" gradientUnits="userSpaceOnUse">
<stop stop-color="#0015FF"/>
<stop offset="0.825" stop-color="#BE9FFF"/>
<stop offset="1" stop-color="#5F72DA"/>
</linearGradient>
<linearGradient id="paint1_linear_1_248" x1="719.132" y1="498.074" x2="719.132" y2="162.058" gradientUnits="userSpaceOnUse">
<stop stop-color="#0D0D0D"/>
<stop offset="1" stop-color="#131835"/>
</linearGradient>
<linearGradient id="paint2_linear_1_248" x1="551.01" y1="213.51" x2="597.864" y2="54.5682" gradientUnits="userSpaceOnUse">
<stop stop-color="#5F72DA"/>
<stop offset="1" stop-color="#253DBF"/>
</linearGradient>
</defs>
</svg>
